<svg id="visual" viewBox="0 0 900 600" width="900" height="600" xmlns="http://www.w3.org/2000/svg" xmlns:xlink="http://www.w3.org/1999/xlink" version="1.1"><path d="M0 169L13.7 158C27.3 147 54.7 125 82 144C109.3 163 136.7 223 163.8 235C191 247 218 211 245.2 186C272.3 161 299.7 147 327 157C354.3 167 381.7 201 409 204C436.3 207 463.7 179 491 169C518.3 159 545.7 167 573 163C600.3 159 627.7 143 654.8 147C682 151 709 175 736.2 177C763.3 179 790.7 159 818 141C845.3 123 872.7 107 886.3 99L900 91L900 0L886.3 0C872.7 0 845.3 0 818 0C790.7 0 763.3 0 736.2 0C709 0 682 0 654.8 0C627.7 0 600.3 0 573 0C545.7 0 518.3 0 491 0C463.7 0 436.3 0 409 0C381.7 0 354.3 0 327 0C299.7 0 272.3 0 245.2 0C218 0 191 0 163.8 0C136.7 0 109.3 0 82 0C54.7 0 27.3 0 13.7 0L0 0Z" fill="#4fa36f"></path><path d="M0 313L13.7 318C27.3 323 54.7 333 82 345C109.3 357 136.7 371 163.8 362C191 353 218 321 245.2 312C272.3 303 299.7 317 327 325C354.3 333 381.7 335 409 333C436.3 331 463.7 325 491 324C518.3 323 545.7 327 573 343C600.3 359 627.7 387 654.8 380C682 373 709 331 736.2 323C763.3 315 790.7 341 818 350C845.3 359 872.7 351 886.3 347L900 343L900 89L886.3 97C872.7 105 845.3 121 818 139C790.7 157 763.3 177 736.2 175C709 173 682 149 654.8 145C627.7 141 600.3 157 573 161C545.7 165 518.3 157 491 167C463.7 177 436.3 205 409 202C381.7 199 354.3 165 327 155C299.7 145 272.3 159 245.2 184C218 209 191 245 163.8 233C136.7 221 109.3 161 82 142C54.7 123 27.3 145 13.7 156L0 167Z" fill="#39925c"></path><path d="M0 385L13.7 389C27.3 393 54.7 401 82 413C109.3 425 136.7 441 163.8 431C191 421 218 385 245.2 377C272.3 369 299.7 389 327 400C354.3 411 381.7 413 409 412C436.3 411 463.7 407 491 407C518.3 407 545.7 411 573 421C600.3 431 627.7 447 654.8 436C682 425 709 387 736.2 377C763.3 367 790.7 385 818 394C845.3 403 872.7 403 886.3 403L900 403L900 341L886.3 345C872.7 349 845.3 357 818 348C790.7 339 763.3 313 736.2 321C709 329 682 371 654.8 378C627.7 385 600.3 357 573 341C545.7 325 518.3 321 491 322C463.7 323 436.3 329 409 331C381.7 333 354.3 331 327 323C299.7 315 272.3 301 245.2 310C218 319 191 351 163.8 360C136.7 369 109.3 355 82 343C54.7 331 27.3 321 13.7 316L0 311Z" fill="#218249"></path><path d="M0 487L13.7 489C27.3 491 54.7 495 82 503C109.3 511 136.7 523 163.8 517C191 511 218 487 245.2 476C272.3 465 299.7 467 327 469C354.3 471 381.7 473 409 469C436.3 465 463.7 455 491 454C518.3 453 545.7 461 573 477C600.3 493 627.7 517 654.8 517C682 517 709 493 736.2 491C763.3 489 790.7 509 818 519C845.3 529 872.7 529 886.3 529L900 529L900 401L886.3 401C872.7 401 845.3 401 818 392C790.7 383 763.3 365 736.2 375C709 385 682 423 654.8 434C627.7 445 600.3 429 573 419C545.7 409 518.3 405 491 405C463.7 405 436.3 409 409 410C381.7 411 354.3 409 327 398C299.7 387 272.3 367 245.2 375C218 383 191 419 163.8 429C136.7 439 109.3 423 82 411C54.7 399 27.3 391 13.7 387L0 383Z" fill="#1c703f"></path><path d="M0 601L13.7 601C27.3 601 54.7 601 82 601C109.3 601 136.7 601 163.8 601C191 601 218 601 245.2 601C272.3 601 299.7 601 327 601C354.3 601 381.7 601 409 601C436.3 601 463.7 601 491 601C518.3 601 545.7 601 573 601C600.3 601 627.7 601 654.8 601C682 601 709 601 736.2 601C763.3 601 790.7 601 818 601C845.3 601 872.7 601 886.3 601L900 601L900 527L886.3 527C872.7 527 845.3 527 818 517C790.7 507 763.3 487 736.2 489C709 491 682 515 654.8 515C627.7 515 600.3 491 573 475C545.7 459 518.3 451 491 452C463.7 453 436.3 463 409 467C381.7 471 354.3 469 327 467C299.7 465 272.3 463 245.2 474C218 485 191 509 163.8 515C136.7 521 109.3 509 82 501C54.7 493 27.3 489 13.7 487L0 485Z" fill="#185f36"></path></svg>